<svg t="1708330970456" class="icon" viewBox="0 0 1024 1024" version="1.1" xmlns="http://www.w3.org/2000/svg" p-id="1065" width="128" height="128"><path d="M710.71 777.66a44.87 44.87 0 0 1-21.34-5.42L539.11 691a25 25 0 0 1 23.78-44l144.71 78.25 118.58-410.12a16.68 16.68 0 0 0-20.51-20.7l-588.14 164 81.18 39.83A98.81 98.81 0 0 1 354 587v81.58a14 14 0 0 0 23.93 9.89l217.36-218.12a25 25 0 0 1 35.42 35.3L413.35 713.77A64 64 0 0 1 304 668.59V587a49.12 49.12 0 0 0-27.32-43.83l-93.15-45.71a44.92 44.92 0 0 1 7.71-83.59l601-167.62a66.69 66.69 0 0 1 82 82.76L753.88 745.2a45 45 0 0 1-43.17 32.46z" p-id="1066"></path></svg>